<?xml version="1.0" encoding="utf-8"?>
<!-- Generator: Adobe Illustrator 18.0.0, SVG Export Plug-In . SVG Version: 6.00 Build 0)  -->
<!DOCTYPE svg PUBLIC "-//W3C//DTD SVG 1.1//EN" "http://www.w3.org/Graphics/SVG/1.1/DTD/svg11.dtd">
<svg version="1.1" id="Layer_1" xmlns="http://www.w3.org/2000/svg" xmlns:xlink="http://www.w3.org/1999/xlink" x="0px" y="0px"
	 viewBox="0 0 490.7 200" enable-background="new 0 0 490.7 200" xml:space="preserve">
<g>
	<path d="M96.9,126.6v22.1c0,11.8-4.2,21.9-12.6,30.3c-8.4,8.4-18.5,12.6-30.3,12.6l-45.2-0.3V9.6H54c11.4,0,21.2,3.9,29.4,11.7
		c8.1,7.8,12.3,16.6,12.5,26.5l0.3,10.9c0.3,13-6,23.7-19,32l-0.3-0.3C90.2,99,96.9,111,96.9,126.6z M46.4,80.4h6.2
		c1.4,0,2.6-0.8,3.6-2.3c1-1.6,1.6-3.1,1.6-4.7l0.3-22.9c0-1.7-0.5-3.4-1.6-4.9s-2.3-2.3-3.6-2.3h-6.5V80.4z M58.1,124.6
		c0-1.6-0.5-3.1-1.6-4.7c-1-1.6-2.3-2.3-3.6-2.3h-6.5v36.9h6.2c1.4,0,2.6-0.8,3.6-2.3c1-1.6,1.6-3.1,1.6-4.7h0.3V124.6z"/>
	<path d="M146.5,124.6c-5.9-5.7-11.9-11.5-17.9-17.4c-10.6-10.6-17.2-19.8-20-27.6c-2.4-6.2-3.6-16.2-3.6-29.9
		c0-11.8,4.2-21.9,12.6-30.3C126,11,136,6.8,147.8,6.8c11.8,0,21.8,4.2,30.2,12.7c8.3,8.5,12.5,18.6,12.5,30.4v19.8H153V52
		c0-3.6-1.7-5.5-5.2-5.5c-3.6,0-5.5,2.9-5.5,8.6c0,7.3,3.1,14.8,9.4,22.6c1.6,1.9,7.7,8.2,18.5,19c9.9,9.9,15.9,18.2,17.9,25
		c1.6,4.7,2.3,14.9,2.3,30.7c0,11.8-4.2,21.8-12.6,30.2c-8.4,8.3-18.5,12.5-30.3,12.5c-11.8,0-21.8-4.2-30.2-12.6
		c-8.3-8.4-12.5-18.5-12.5-30.3v-20.8h37.4V149c0,3.3,1.7,5,5.2,5.2c3.6,0.2,5.5-2.8,5.5-8.8v-0.3
		C153,136.6,150.9,129.8,146.5,124.6z"/>
	<path d="M284.1,66.6c0,13-3.7,24.6-11.2,34.8c-8.5,11.4-19.1,17.2-31.7,17.2h-5.5v72.8h-37.2V9.6l42.6-0.3c11.6,0,21.7,4.7,30.2,14
		c8.5,9.4,12.7,20.1,12.7,32.2V66.6z M246.4,74.4V53.6c0-1.6-0.6-3.1-1.6-4.7c-1.1-1.6-2.3-2.3-3.7-2.3h-5.3v35.1h5.6
		c1.4,0,2.5-0.8,3.6-2.3C245.9,77.8,246.4,76.1,246.4,74.4z"/>
	<path d="M294.5,9.9h39V71l16.9-61.1h39l-25,83.7l29.1,97.8h-39l-21.1-76.4v76.4h-39V9.9z"/>
	<path d="M484.8,51.2h-22.9v140.4h-40V51.2h-22.6V9.4h85.5V51.2z"/>
</g>
<rect x="177.7" y="262" fill="none" width="559" height="247"/>
<text transform="matrix(1 0 0 1 177.6667 432.2998)" font-family="'UtilityBoldCondensed'" font-size="260">BSPKT</text>
</svg>
